<svg width="49" height="50" viewBox="0 0 49 50" fill="none" xmlns="http://www.w3.org/2000/svg">
<path d="M17.15 5.41969C16.5064 5.41985 15.8691 5.54678 15.2745 5.79324C14.6799 6.0397 14.1397 6.40085 13.6847 6.85609C13.2297 7.31132 12.8688 7.85172 12.6226 8.44643C12.3765 9.04113 12.2498 9.6785 12.25 10.3221C12.2502 10.9658 12.3771 11.6031 12.6236 12.1977C12.87 12.7922 13.2312 13.3325 13.6864 13.7875C14.1416 14.2425 14.682 14.6034 15.2767 14.8495C15.8714 15.0957 16.5088 15.2223 17.1525 15.2221C18.4523 15.2218 19.6989 14.7051 20.6178 13.7857C21.5367 12.8663 22.0528 11.6196 22.0525 10.3197C22.0521 9.0198 21.5354 7.77328 20.616 6.85436C19.6967 5.93543 18.4499 5.41936 17.15 5.41969ZM17.15 20.1197C16.5064 20.1198 15.8691 20.2468 15.2745 20.4932C14.6799 20.7397 14.1397 21.1009 13.6847 21.5561C13.2297 22.0113 12.8688 22.5517 12.6226 23.1464C12.3765 23.7411 12.2498 24.3785 12.25 25.0221C12.2502 25.6658 12.3771 26.3031 12.6236 26.8977C12.87 27.4922 13.2312 28.0325 13.6864 28.4875C14.1416 28.9425 14.682 29.3034 15.2767 29.5495C15.8714 29.7957 16.5088 29.9223 17.1525 29.9221C18.4523 29.9218 19.6989 29.4051 20.6178 28.4857C21.5367 27.5663 22.0528 26.3196 22.0525 25.0197C22.0521 23.7198 21.5354 22.4733 20.616 21.5544C19.6967 20.6354 18.4499 20.1194 17.15 20.1197ZM17.15 34.8197C15.8501 34.82 14.6036 35.3367 13.6847 36.2561C12.7657 37.1755 12.2497 38.4223 12.25 39.7221C12.2503 41.022 12.767 42.2685 13.6864 43.1875C14.6058 44.1064 15.8526 44.6225 17.1525 44.6221C18.4523 44.6218 19.6989 44.1051 20.6178 43.1857C21.5367 42.2663 22.0528 41.0196 22.0525 39.7197C22.0521 38.4198 21.5354 37.1733 20.616 36.2544C19.6967 35.3354 18.4499 34.8194 17.15 34.8197ZM31.85 15.2197C32.4936 15.2195 33.1309 15.0926 33.7255 14.8461C34.3201 14.5997 34.8603 14.2385 35.3153 13.7833C35.7703 13.3281 36.1312 12.7877 36.3774 12.1929C36.6235 11.5982 36.7502 10.9609 36.75 10.3172C36.7498 9.6736 36.6229 9.03629 36.3764 8.44171C36.13 7.84713 35.7688 7.30691 35.3136 6.85191C34.8584 6.3969 34.318 6.03601 33.7233 5.78985C33.1286 5.54369 32.4912 5.41708 31.8475 5.41724C30.5477 5.41756 29.3011 5.93425 28.3822 6.85364C27.4633 7.77303 26.9472 9.0198 26.9475 10.3197C26.9479 11.6196 27.4646 12.8661 28.384 13.785C29.3033 14.7039 30.5501 15.22 31.85 15.2197ZM31.85 20.1197C31.2064 20.1198 30.5691 20.2468 29.9745 20.4932C29.3799 20.7397 28.8397 21.1009 28.3847 21.5561C27.9297 22.0113 27.5688 22.5517 27.3226 23.1464C27.0765 23.7411 26.9498 24.3785 26.95 25.0221C26.9502 25.6658 27.0771 26.3031 27.3236 26.8977C27.57 27.4922 27.9312 28.0325 28.3864 28.4875C28.8416 28.9425 29.382 29.3034 29.9767 29.5495C30.5714 29.7957 31.2088 29.9223 31.8525 29.9221C33.1523 29.9218 34.3989 29.4051 35.3178 28.4857C36.2367 27.5663 36.7528 26.3196 36.7525 25.0197C36.7521 23.7198 36.2354 22.4733 35.316 21.5544C34.3967 20.6354 33.1499 20.1194 31.85 20.1197ZM31.85 34.8197C30.5501 34.82 29.3036 35.3367 28.3847 36.2561C27.9297 36.7113 27.5688 37.2517 27.3226 37.8464C27.0765 38.4411 26.9498 39.0785 26.95 39.7221C26.9502 40.3658 27.0771 41.0031 27.3236 41.5977C27.57 42.1922 27.9312 42.7325 28.3864 43.1875C29.3058 44.1064 30.5526 44.6225 31.8525 44.6221C33.1523 44.6218 34.3989 44.1051 35.3178 43.1857C36.2367 42.2663 36.7528 41.0196 36.7525 39.7197C36.7521 38.4198 36.2354 37.1733 35.316 36.2544C34.3967 35.3354 33.1499 34.8194 31.85 34.8197Z" fill="#5C5F62"/>
</svg>
