<svg width="43" height="39" viewBox="0 0 43 39" fill="none" xmlns="http://www.w3.org/2000/svg">
<path d="M35.5 19.5813C35.4673 17.104 34.6728 14.687 33.2102 12.6149C31.7475 10.5428 29.6778 8.90191 27.2446 7.88552C24.8112 6.86913 22.1159 6.51956 19.4758 6.87796C16.8358 7.23637 14.361 8.28781 12.343 9.9085C10.3249 11.5292 8.84762 13.6516 8.08506 16.0258C7.32251 18.4 7.30645 20.927 8.03879 23.3094C8.77113 25.6918 10.2214 27.8302 12.2187 29.4729C14.216 31.1156 16.6772 32.1941 19.3125 32.5813V23.3676H15.8125V19.5813H19.3125V16.7051C19.2315 16.0363 19.3096 15.3592 19.5413 14.7215C19.773 14.0838 20.1525 13.501 20.6532 13.0144C21.1539 12.5278 21.7634 12.1492 22.4389 11.9052C23.1144 11.6613 23.8394 11.558 24.5625 11.6026C25.6122 11.616 26.6594 11.7029 27.695 11.8626V15.1126H25.945C25.6433 15.0773 25.3367 15.1054 25.0483 15.1948C24.7598 15.2842 24.4966 15.4327 24.2782 15.6293C24.0598 15.8258 23.8918 16.0654 23.7866 16.3304C23.6812 16.5954 23.6415 16.879 23.67 17.1601V19.6138H27.555L26.925 23.4001H23.6875V32.5001C26.9949 32.0144 30.0052 30.444 32.1724 28.0738C34.3396 25.7035 35.5202 22.6906 35.5 19.5813Z" fill="black"/>
</svg>
